<svg width="20" height="20" viewBox="0 0 20 20" fill="none" xmlns="http://www.w3.org/2000/svg">
<path d="M19.3206 1.73685C19.3045 1.46162 19.188 1.20188 18.993 1.00694C18.7981 0.811995 18.5383 0.695421 18.2631 0.679348C14.5506 0.46091 11.2703 0.898723 8.5131 1.97966C5.87498 3.01372 3.84154 4.61685 2.63029 6.6156C0.978414 9.34466 0.974664 12.6578 2.5881 15.8209L0.954039 17.455C0.849392 17.5596 0.766381 17.6839 0.709746 17.8206C0.653112 17.9573 0.623962 18.1039 0.623962 18.2519C0.623962 18.3998 0.653112 18.5464 0.709746 18.6831C0.766381 18.8198 0.849392 18.9441 0.954039 19.0487C1.16538 19.2601 1.45203 19.3788 1.75091 19.3788C1.89891 19.3788 2.04545 19.3497 2.18218 19.293C2.31891 19.2364 2.44314 19.1534 2.54779 19.0487L4.18185 17.4147C5.75123 18.2153 7.3581 18.6193 8.91154 18.6193C10.4898 18.6243 12.0388 18.1927 13.3872 17.3725C15.3859 16.1612 16.989 14.1268 18.0231 11.4897C19.1012 8.7306 19.539 5.44935 19.3206 1.73685ZM12.2181 15.445C10.3347 16.5859 8.12498 16.6722 5.86935 15.7187L13.795 7.7931C13.8996 7.68845 13.9826 7.56422 14.0393 7.42749C14.0959 7.29076 14.1251 7.14422 14.1251 6.99622C14.1251 6.84823 14.0959 6.70169 14.0393 6.56496C13.9826 6.42823 13.8996 6.304 13.795 6.19935C13.6903 6.0947 13.5661 6.01169 13.4294 5.95506C13.2926 5.89842 13.1461 5.86927 12.9981 5.86927C12.8501 5.86927 12.7036 5.89842 12.5668 5.95506C12.4301 6.01169 12.3059 6.0947 12.2012 6.19935L4.28123 14.1306C3.3306 11.8806 3.41685 9.66529 4.56248 7.78185C6.52279 4.54466 11.1756 2.7456 17.125 2.88341C17.2544 8.83091 15.4553 13.4847 12.2181 15.445Z" fill="black"/>
</svg>
