<svg width="20" height="22" viewBox="0 0 20 22" fill="none" xmlns="http://www.w3.org/2000/svg">
<path d="M19.121 14.5559C18.3072 13.1562 17.875 11.1472 17.875 8.75C17.875 6.66142 17.0453 4.65838 15.5685 3.18153C14.0916 1.70469 12.0886 0.875 10 0.875C7.91145 0.875 5.90841 1.70469 4.43156 3.18153C2.95471 4.65838 2.12503 6.66142 2.12503 8.75C2.12503 11.1481 1.69471 13.1562 0.880964 14.5559C0.714915 14.8414 0.626896 15.1656 0.625744 15.4958C0.624592 15.8261 0.710348 16.1509 0.874401 16.4375C1.03742 16.7243 1.27402 16.9624 1.5598 17.1272C1.84557 17.292 2.17015 17.3775 2.50003 17.375H5.8919C5.98493 18.4003 6.45798 19.3537 7.21811 20.048C7.97825 20.7423 8.97054 21.1273 10 21.1273C11.0295 21.1273 12.0218 20.7423 12.7819 20.048C13.5421 19.3537 14.0151 18.4003 14.1082 17.375H17.5C17.8294 17.377 18.1534 17.2913 18.4387 17.1265C18.7239 16.9617 18.9601 16.7239 19.1228 16.4375C19.2876 16.1513 19.3742 15.8267 19.3738 15.4965C19.3735 15.1662 19.2863 14.8418 19.121 14.5559ZM10 18.875C9.56778 18.8751 9.14878 18.7258 8.81394 18.4525C8.47909 18.1791 8.24898 17.7985 8.16253 17.375H11.8375C11.7511 17.7985 11.521 18.1791 11.1861 18.4525C10.8513 18.7258 10.4323 18.8751 10 18.875ZM3.1244 15.125C3.95409 13.4375 4.37503 11.2944 4.37503 8.75C4.37503 7.25816 4.96766 5.82742 6.02255 4.77252C7.07744 3.71763 8.50818 3.125 10 3.125C11.4919 3.125 12.9226 3.71763 13.9775 4.77252C15.0324 5.82742 15.625 7.25816 15.625 8.75C15.625 11.2934 16.045 13.4375 16.8747 15.125H3.1244Z" fill="black"/>
</svg>
