<svg width="22" height="22" viewBox="0 0 22 22" fill="none" xmlns="http://www.w3.org/2000/svg">
<path d="M20.4931 7.47499C21.2996 9.64123 21.3406 12.0182 20.6093 14.211C19.878 16.4038 18.4184 18.2803 16.4731 19.5288C14.5277 20.7772 12.2138 21.3225 9.91568 21.074C7.61758 20.8254 5.4737 19.798 3.84028 18.1625C2.00545 16.3337 0.941398 13.8712 0.867086 11.2817C0.792774 8.69217 1.71386 6.17268 3.44079 4.24168C5.16773 2.31068 7.56913 1.11507 10.1508 0.900895C12.7325 0.686719 15.2981 1.47027 17.3197 3.0903L19.204 1.20499C19.3087 1.10034 19.4329 1.01733 19.5696 0.960697C19.7064 0.904062 19.8529 0.874913 20.0009 0.874913C20.1489 0.874913 20.2954 0.904062 20.4322 0.960697C20.5689 1.01733 20.6931 1.10034 20.7978 1.20499C20.9024 1.30964 20.9854 1.43387 21.0421 1.5706C21.0987 1.70733 21.1279 1.85387 21.1279 2.00186C21.1279 2.14986 21.0987 2.2964 21.0421 2.43313C20.9854 2.56986 20.9024 2.69409 20.7978 2.79874L11.7978 11.7987C11.6931 11.9034 11.5689 11.9864 11.4322 12.043C11.2954 12.0997 11.1489 12.1288 11.0009 12.1288C10.8529 12.1288 10.7064 12.0997 10.5696 12.043C10.4329 11.9864 10.3087 11.9034 10.204 11.7987C10.0994 11.6941 10.0164 11.5699 9.95974 11.4331C9.90311 11.2964 9.87396 11.1499 9.87396 11.0019C9.87396 10.8539 9.90311 10.7073 9.95974 10.5706C10.0164 10.4339 10.0994 10.3096 10.204 10.205L12.454 7.95499C11.8199 7.65201 11.107 7.55457 10.4148 7.67624C9.72259 7.79792 9.08565 8.13264 8.59284 8.63372C8.10004 9.13479 7.77595 9.77721 7.6658 10.4713C7.55565 11.1654 7.66494 11.8766 7.97842 12.5057C8.2919 13.1347 8.79393 13.6501 9.41445 13.9801C10.035 14.3101 10.743 14.4381 11.4398 14.3464C12.1366 14.2546 12.7874 13.9476 13.3013 13.4682C13.8152 12.9888 14.1666 12.3609 14.3065 11.6722C14.3655 11.3797 14.5382 11.1225 14.7867 10.9573C15.0352 10.7922 15.3392 10.7325 15.6317 10.7914C15.9242 10.8503 16.1813 11.023 16.3465 11.2716C16.5117 11.5201 16.5714 11.824 16.5125 12.1166C16.2728 13.297 15.6606 14.3694 14.7658 15.1758C13.8711 15.9823 12.7411 16.4802 11.5421 16.5963C10.3432 16.7124 9.13865 16.4406 8.10577 15.8208C7.07289 15.2011 6.26624 14.2661 5.80453 13.1536C5.34283 12.041 5.25045 10.8096 5.541 9.64066C5.83156 8.47169 6.48969 7.42685 7.41854 6.65993C8.34739 5.89301 9.4979 5.44451 10.7007 5.38045C11.9036 5.31638 13.0952 5.64013 14.1003 6.30405L15.7156 4.69436C14.1983 3.56116 12.3234 3.01271 10.4345 3.14952C8.54566 3.28633 6.76937 4.09923 5.43116 5.43926C4.09295 6.77928 3.28245 8.55668 3.14821 10.4457C3.01396 12.3347 3.56496 14.2089 4.70021 15.7247C5.83547 17.2405 7.47895 18.2964 9.32947 18.699C11.18 19.1015 13.1136 18.8237 14.776 17.9165C16.4383 17.0093 17.718 15.5334 18.3806 13.7593C19.0433 11.9852 19.0443 10.0317 18.3837 8.25686C18.3311 8.1181 18.3065 7.97031 18.3113 7.822C18.3161 7.67368 18.3501 7.52778 18.4115 7.39268C18.4729 7.25759 18.5604 7.13598 18.669 7.03485C18.7776 6.93373 18.9052 6.85509 19.0443 6.80346C19.1834 6.75183 19.3314 6.72823 19.4796 6.73403C19.6279 6.73982 19.7736 6.7749 19.9083 6.83723C20.0429 6.89956 20.1639 6.98792 20.2643 7.09721C20.3647 7.20651 20.4424 7.33458 20.4931 7.47405V7.47499Z" fill="black"/>
</svg>
