<svg width="20" height="22" viewBox="0 0 20 22" fill="none" xmlns="http://www.w3.org/2000/svg">
<path d="M17.5 7.125H14.875V5.25C14.875 3.95707 14.3614 2.71709 13.4471 1.80285C12.5329 0.888615 11.2929 0.375 10 0.375C8.70707 0.375 7.46709 0.888615 6.55285 1.80285C5.63861 2.71709 5.125 3.95707 5.125 5.25V7.125H2.5C2.00272 7.125 1.52581 7.32254 1.17417 7.67417C0.822544 8.02581 0.625 8.50272 0.625 9V19.5C0.625 19.9973 0.822544 20.4742 1.17417 20.8258C1.52581 21.1775 2.00272 21.375 2.5 21.375H17.5C17.9973 21.375 18.4742 21.1775 18.8258 20.8258C19.1775 20.4742 19.375 19.9973 19.375 19.5V9C19.375 8.50272 19.1775 8.02581 18.8258 7.67417C18.4742 7.32254 17.9973 7.125 17.5 7.125ZM7.375 5.25C7.375 4.55381 7.65156 3.88613 8.14384 3.39384C8.63613 2.90156 9.30381 2.625 10 2.625C10.6962 2.625 11.3639 2.90156 11.8562 3.39384C12.3484 3.88613 12.625 4.55381 12.625 5.25V7.125H7.375V5.25ZM17.125 19.125H2.875V9.375H17.125V19.125ZM11.5 14.25C11.5 14.5467 11.412 14.8367 11.2472 15.0834C11.0824 15.33 10.8481 15.5223 10.574 15.6358C10.2999 15.7494 9.99834 15.7791 9.70736 15.7212C9.41639 15.6633 9.14912 15.5204 8.93934 15.3107C8.72956 15.1009 8.5867 14.8336 8.52882 14.5426C8.47094 14.2517 8.50065 13.9501 8.61418 13.676C8.72771 13.4019 8.91997 13.1676 9.16664 13.0028C9.41332 12.838 9.70333 12.75 10 12.75C10.3978 12.75 10.7794 12.908 11.0607 13.1893C11.342 13.4706 11.5 13.8522 11.5 14.25Z" fill="black"/>
</svg>
